<svg version="1.1" id="Layer_1" xmlns="http://www.w3.org/2000/svg" xmlns:xlink="http://www.w3.org/1999/xlink" x="0px" y="0px"
	 width="100%" viewBox="0 0 543 595" enable-background="new 0 0 543 595" xml:space="preserve">
<path fill="#FEFEFE" opacity="1.000000" stroke="none" 
	d="
M544.000000,226.000000 
	C544.000000,349.666656 544.000000,472.833282 544.000000,596.000000 
	C363.000031,596.000000 182.000076,596.000000 1.000082,596.000000 
	C1.000054,397.666718 1.000054,199.333450 1.000027,1.000135 
	C181.999924,1.000090 362.999847,1.000090 543.999878,1.000045 
	C544.000000,75.833336 544.000000,150.666672 544.000000,226.000000 
M407.386047,150.017838 
	C407.149597,150.315552 406.913147,150.613281 406.107056,151.216934 
	C384.980652,172.115845 363.891205,193.052429 342.679596,213.864532 
	C340.113495,216.382294 339.031830,218.884689 339.038208,222.539581 
	C339.154022,288.956055 339.122498,355.372833 339.122467,421.789520 
	C339.122467,422.621796 338.795471,423.690582 339.190338,424.239471 
	C340.152618,425.577148 341.443970,427.707672 342.613159,427.714386 
	C364.077759,427.837555 385.543884,427.694763 407.883057,427.798859 
	C409.814514,427.798859 411.745941,427.798859 413.758667,427.798859 
	C413.758667,332.908783 413.758667,238.654282 413.758667,143.443802 
	C412.021606,145.423096 410.942444,146.652771 409.926727,147.957932 
	C409.926727,147.957932 409.933350,147.859543 409.403015,148.014252 
	C409.223206,148.322113 409.043396,148.629990 408.948853,148.946915 
	C408.948853,148.946915 408.935089,148.862320 408.405731,149.014771 
	C408.224915,149.321991 408.044067,149.629211 407.949066,149.951584 
	C407.949066,149.951584 407.942413,149.864685 407.386047,150.017838 
M443.884918,96.779762 
	C443.571564,97.170311 443.258209,97.560860 442.998779,98.000458 
	C442.998779,98.000458 442.950958,97.945900 442.247589,98.317719 
	C441.882294,100.207664 441.198425,102.097435 441.197357,103.987587 
	C441.140411,206.532913 441.138794,309.078247 441.151093,411.623596 
	C441.151306,413.439850 441.388153,415.256134 441.342743,417.940735 
	C441.400604,420.304199 441.458466,422.667694 441.244751,425.618561 
	C441.508545,426.307861 441.772339,426.997192 442.949066,427.884338 
	C465.274384,427.905396 487.601593,427.778107 509.923584,428.061615 
	C514.916504,428.125031 516.483093,427.144318 516.473694,421.703857 
	C516.249451,291.761597 516.251831,161.818985 516.213135,31.876429 
	C516.212524,29.834322 516.213135,27.792215 516.213135,25.750109 
	C515.835510,25.657829 515.457886,25.565552 515.080261,25.473272 
	C512.940308,27.897848 510.800262,30.322424 508.767517,32.841778 
	C508.767517,32.841778 508.737823,32.701767 508.229004,32.857925 
	C508.052643,33.153423 507.876251,33.448917 507.751556,33.671280 
	C507.751556,33.671280 507.662476,33.680332 507.103149,33.865944 
	C506.628876,34.466141 506.154633,35.066334 505.663696,35.758320 
	C505.663696,35.758320 505.735809,35.699104 505.228485,35.858078 
	C505.052002,36.153347 504.875549,36.448612 504.831757,36.770802 
	C504.831757,36.770802 504.747986,36.664467 504.190826,36.796642 
	C503.831512,37.218723 503.472198,37.640804 503.030334,38.031601 
	C503.030334,38.031601 503.061554,38.114151 502.519165,38.300762 
	C502.023102,38.875553 501.527039,39.450344 501.003174,39.997730 
	C501.003174,39.997730 501.019501,40.031731 500.513214,40.146160 
	C500.353729,40.437450 500.194214,40.728741 499.996979,41.004433 
	C499.996979,41.004433 500.026978,41.033813 499.473694,41.351063 
	C498.329071,42.577137 497.184448,43.803211 495.996460,45.005257 
	C495.996460,45.005257 496.030945,45.042431 495.507568,45.308701 
	C495.017090,45.881226 494.526581,46.453751 494.025665,46.998322 
	C494.025665,46.998322 493.995850,46.999615 493.471283,47.263641 
	C492.983459,47.843296 492.495636,48.422951 492.000000,49.000000 
	C492.000000,49.000000 492.003601,49.008705 491.458984,49.286903 
	C490.847351,50.054703 490.235687,50.822502 489.902374,51.914478 
	C489.902374,51.914478 489.596497,51.616127 489.051331,51.766457 
	C488.699219,52.178185 488.347137,52.589912 487.603485,53.267342 
	C487.361572,53.474583 487.158630,53.714745 486.483826,54.109386 
	C486.323212,54.404434 486.162598,54.699486 485.998779,54.999390 
	C485.998779,54.999390 485.996124,55.003887 485.431580,55.298244 
	C484.275909,56.518707 483.120239,57.739170 481.998779,58.999390 
	C481.998779,58.999390 481.959076,58.965046 481.473419,59.146912 
	C481.175659,59.551319 480.877899,59.955723 480.472015,60.476345 
	C480.472015,60.476345 480.357025,60.585743 479.885040,60.785744 
	C479.565125,61.178257 479.245178,61.570766 478.502258,62.170338 
	C478.237854,62.362389 478.058899,62.614994 477.415680,63.147182 
	C476.929047,63.749527 476.442413,64.351875 476.000000,65.000000 
	C476.000000,65.000000 475.952728,64.956650 475.405212,65.160973 
	C474.809265,65.883759 474.213287,66.606552 473.504608,67.451027 
	C473.504608,67.451027 473.398315,67.578346 472.912323,67.771355 
	C472.583801,68.168663 472.255280,68.565971 471.427887,69.229729 
	C470.940735,69.796806 470.453583,70.363884 469.416931,71.149651 
	C468.930115,71.751404 468.443329,72.353149 468.000000,73.000000 
	C468.000000,73.000000 467.953491,72.957298 467.405975,73.161308 
	C466.810059,73.883774 466.214172,74.606239 465.448608,75.463120 
	C465.448608,75.463120 465.345306,75.653343 465.028656,75.775421 
	C464.827026,75.905083 464.703125,76.087563 464.489044,76.431618 
	C464.489044,76.431618 464.360535,76.585037 463.887238,76.783806 
	C463.566833,77.177086 463.246399,77.570374 462.502594,78.170288 
	C462.237976,78.362274 462.058899,78.614891 461.415710,79.147217 
	C460.929077,79.749557 460.442413,80.351898 460.000000,81.000000 
	C460.000000,81.000000 459.952728,80.956650 459.405212,81.160973 
	C458.809265,81.883766 458.213287,82.606552 457.504608,83.451027 
	C457.504608,83.451027 457.398315,83.578346 456.912354,83.771378 
	C456.583832,84.168686 456.255310,84.566002 455.427917,85.229736 
	C454.940735,85.796814 454.453583,86.363892 453.416931,87.149651 
	C452.930115,87.751396 452.443329,88.353149 452.000000,89.000000 
	C452.000000,89.000000 451.953491,88.957298 451.405975,89.161308 
	C450.810059,89.883774 450.214172,90.606239 449.448608,91.463120 
	C449.448608,91.463120 449.345306,91.653343 449.028687,91.775383 
	C448.827087,91.905075 448.703217,92.087555 448.488922,92.431549 
	C448.488922,92.431549 448.360413,92.585052 447.887207,92.783867 
	C447.566833,93.177147 447.246490,93.570427 446.502655,94.171074 
	C446.237946,94.363495 446.059174,94.616608 445.473877,95.119743 
	C445.176941,95.535866 444.880005,95.951981 444.472473,96.480095 
	C444.472473,96.480095 444.354370,96.584213 443.884918,96.779762 
M201.407410,338.285309 
	C200.715836,339.136108 200.024261,339.986908 198.757721,341.078064 
	C187.647568,352.006836 176.466156,362.864349 165.443939,373.881134 
	C148.875458,390.441467 132.418427,407.113342 115.314743,424.055450 
	C114.278770,425.141052 113.242790,426.226654 111.588799,427.959869 
	C113.776428,427.812592 114.887100,427.737823 116.756699,427.847961 
	C117.531326,427.791992 118.305962,427.736023 119.685516,427.834198 
	C120.095284,427.781342 120.505051,427.728485 121.842186,427.853241 
	C126.560226,427.798920 131.278259,427.744629 136.886246,427.846008 
	C139.588669,427.794128 142.291077,427.742279 145.856110,427.864380 
	C147.902863,427.806000 149.949615,427.747620 152.922150,427.844666 
	C158.615952,427.792847 164.309738,427.740997 170.865631,427.863983 
	C172.912125,427.806763 174.958633,427.749512 177.882523,427.844025 
	C180.252518,427.789215 182.622498,427.734375 185.655579,427.842712 
	C186.104767,427.790924 186.553940,427.739166 187.825119,427.849274 
	C189.214874,427.788818 190.604614,427.728333 192.895035,427.851929 
	C196.262360,427.799713 199.629669,427.747467 203.499908,427.809143 
	C203.667572,427.771210 203.835220,427.733307 204.531128,427.862244 
	C205.072769,427.792572 205.614395,427.722931 206.588257,427.710114 
	C206.588257,427.710114 207.005859,427.585022 207.374649,427.742889 
	C207.374649,427.742889 207.755920,427.618134 208.488235,427.806824 
	C208.998962,426.476990 209.952103,425.148315 209.955460,423.817200 
	C210.030884,393.956543 210.005753,364.095581 209.978256,334.234711 
	C209.977158,333.044373 209.765854,331.854218 209.582016,329.923981 
	C207.342316,332.367828 205.674255,334.187927 203.458359,336.218170 
	C202.975479,336.816650 202.492599,337.415131 201.407410,338.285309 
M310.951874,233.229248 
	C309.009277,233.861023 306.504730,233.925171 305.207703,235.209106 
	C283.194611,257.000397 261.303101,278.915070 239.503799,300.920471 
	C238.160690,302.276245 237.102448,304.609009 237.095764,306.491425 
	C236.960007,344.738220 236.989136,382.985657 237.022583,421.232910 
	C237.024414,423.325226 237.351212,425.417236 237.561813,427.927216 
	C242.031631,427.927216 246.138977,427.924927 250.246338,427.927643 
	C268.613068,427.939758 286.979828,427.963837 305.346558,427.955750 
	C308.352081,427.954437 311.135284,427.525818 311.605682,423.155518 
	C311.733673,422.770081 311.861664,422.384644 312.093414,421.338715 
	C312.056549,420.894592 312.019684,420.450500 312.097656,419.500183 
	C312.053955,419.332794 312.010223,419.165375 311.978760,418.335815 
	C311.979462,417.894409 311.980164,417.452972 312.056396,416.073212 
	C312.031860,376.710632 312.007324,337.348022 311.991272,297.328644 
	C311.988373,296.890778 311.985504,296.452881 312.063446,295.076355 
	C312.036560,282.712738 312.009674,270.349091 311.991241,257.328705 
	C311.988373,256.890808 311.985474,256.452911 312.063416,255.076660 
	C312.076538,253.124283 312.194855,251.165817 312.082275,249.220718 
	C311.786896,244.117645 311.390839,239.020401 310.951874,233.229248 
M31.640867,266.499908 
	C31.640867,320.178558 31.640867,373.857239 31.640867,427.849182 
	C48.427826,427.849182 64.389046,427.919037 80.347374,427.736206 
	C81.869209,427.718781 83.631859,426.389069 84.841721,425.214325 
	C91.175674,419.064240 97.524261,412.912415 103.507927,406.429077 
	C105.188637,404.608032 106.541328,401.664642 106.545174,399.233704 
	C106.700958,300.607452 106.704353,201.980881 106.569672,103.354568 
	C106.566513,101.043633 105.347069,98.157860 103.714844,96.512520 
	C80.960571,73.575478 58.038330,50.805023 35.138580,28.012501 
	C34.299450,27.177299 33.271702,26.531603 31.640701,25.257812 
	C31.640701,105.993156 31.640701,185.746521 31.640867,266.499908 
M164.822861,158.677170 
	C154.771378,148.762161 144.719879,138.847137 134.278198,128.547226 
	C134.278198,206.594757 134.278198,283.557617 134.278198,360.520477 
	C134.703323,360.786377 135.128448,361.052307 135.553589,361.318237 
	C159.154709,337.336304 182.794052,313.391541 206.267944,289.285736 
	C207.775620,287.737457 208.706314,284.949097 208.721512,282.729553 
	C208.891647,257.901520 208.718597,233.070923 208.935226,208.243607 
	C208.972244,204.002640 207.641678,201.127701 204.692780,198.248672 
	C191.463760,185.333084 178.427521,172.220093 164.822861,158.677170 
M209.885284,24.204332 
	C208.358948,24.204332 206.832611,24.204332 205.530441,24.204332 
	C228.706726,47.499760 251.541550,70.451981 273.835602,92.860619 
	C296.494354,70.185287 319.347778,47.315166 342.439758,24.206345 
	C298.612549,24.206345 254.706650,24.206345 209.885284,24.204332 
M330.109222,562.500000 
	C330.109222,550.747864 330.109222,538.995789 330.109222,527.327026 
	C325.149719,527.327026 320.760437,527.327026 315.935883,527.327026 
	C315.935883,535.712463 315.935883,543.767151 315.935883,551.821655 
	C310.194458,551.821655 304.899811,551.821655 299.254608,551.821655 
	C299.254608,543.562256 299.254608,535.466187 299.254608,527.249451 
	C294.500397,527.249451 290.101379,527.249451 285.589813,527.249451 
	C285.589813,548.233337 285.589813,568.956055 285.589813,589.725464 
	C290.261932,589.725464 294.657990,589.725464 299.576752,589.725464 
	C299.576752,580.898682 299.576752,572.351013 299.576752,563.687134 
	C305.331573,563.687134 310.554474,563.687134 316.163910,563.687134 
	C316.163910,568.269592 316.163910,572.571716 316.163910,576.873840 
	C316.163910,581.148193 316.163910,585.422546 316.163910,589.715698 
	C321.125641,589.715698 325.524231,589.715698 330.109222,589.715698 
	C330.109222,580.779785 330.109222,572.139893 330.109222,562.500000 
M359.974365,586.623169 
	C373.511047,595.141846 390.938324,591.216797 396.721802,577.936096 
	C400.945648,568.236816 401.075836,557.863892 399.297882,547.585205 
	C396.915131,533.809509 388.525513,526.243958 376.007172,525.993347 
	C361.934479,525.711670 353.484283,532.415161 350.424835,546.665771 
	C349.628601,550.374451 349.321320,554.269043 349.390839,558.067200 
	C349.581818,568.500610 350.547974,578.763672 359.974365,586.623169 
M148.885757,543.524353 
	C148.818237,550.830811 152.402344,555.919250 158.839478,558.848267 
	C162.721970,560.614868 166.929611,561.664062 170.983795,563.057068 
	C174.415131,564.235962 178.271835,564.832092 181.113037,566.850525 
	C183.118576,568.275330 185.021332,571.879333 184.622025,574.085449 
	C184.218521,576.314697 181.224731,579.092102 178.839157,579.766296 
	C169.410095,582.431030 163.891174,579.802795 158.473007,570.974609 
	C154.372269,571.577271 150.193985,572.191284 145.966049,572.812622 
	C147.771347,579.890381 150.234985,584.118652 155.442749,586.817627 
	C166.605942,592.603149 178.183014,592.931763 189.442581,587.246765 
	C197.040619,583.410339 200.083084,575.649780 198.088318,567.407532 
	C196.467255,560.709412 191.425308,557.241577 185.482773,555.062622 
	C180.047546,553.069702 174.391006,551.685974 168.854462,549.961731 
	C164.833984,548.709534 161.787918,546.296082 162.542435,541.710388 
	C163.254028,537.385559 166.886703,536.373840 170.771057,535.980103 
	C177.211624,535.327393 181.628067,537.885925 183.666260,544.090515 
	C188.256531,543.583313 192.452866,543.119690 196.854492,542.633362 
	C195.094421,534.787720 191.035263,529.499817 183.595032,527.409790 
	C176.249130,525.346252 168.836273,525.155090 161.522644,527.758423 
	C154.442352,530.278687 149.349167,534.489929 148.885757,543.524353 
M83.909836,566.294800 
	C81.273003,574.086792 78.636162,581.878723 75.928253,589.880737 
	C80.783165,589.880737 85.253548,589.880737 89.738281,589.880737 
	C91.321861,584.603271 92.871208,579.439941 94.382835,574.402283 
	C100.681084,574.402283 106.344719,574.499329 112.002449,574.358582 
	C114.570244,574.294739 115.879166,575.038269 116.439690,577.742004 
	C117.274506,581.768738 118.604309,585.692871 119.741371,589.724121 
	C124.297775,589.724121 128.664398,589.724121 133.545349,589.724121 
	C126.606888,568.606689 119.802925,547.898560 112.933868,526.992371 
	C108.605972,526.992371 104.447525,527.224548 100.329994,526.914124 
	C97.379524,526.691650 96.333412,527.904053 95.507332,530.500488 
	C91.784576,542.201599 87.861351,553.838928 83.909836,566.294800 
M524.444397,585.174194 
	C524.919556,586.733154 525.394775,588.292114 525.866882,589.840881 
	C530.413818,589.840881 534.702942,589.840881 539.578308,589.840881 
	C532.629822,568.687622 525.787903,547.858643 518.933777,526.992554 
	C514.228577,526.992554 509.893188,526.821960 505.586792,527.099976 
	C504.347626,527.179993 502.465759,528.307312 502.105530,529.370300 
	C495.312439,549.413757 488.703918,569.519836 481.977814,589.851685 
	C486.749908,589.851685 491.198395,589.851685 495.783386,589.851685 
	C496.199707,588.402954 496.610199,586.987183 497.013397,585.569275 
	C500.188568,574.403076 500.188171,574.402954 511.931671,574.403564 
	C521.828369,574.404114 521.828369,574.404114 524.444397,585.174194 
M215.699249,547.324219 
	C214.378723,556.281250 214.166550,565.202515 216.966644,573.945251 
	C220.745880,585.745056 230.695480,591.944397 244.122589,590.994324 
	C254.780807,590.240112 263.419037,582.315125 265.445770,571.319946 
	C261.416138,570.549927 257.386932,569.779968 253.252975,568.990051 
	C252.647324,570.421509 252.240814,571.677795 251.613663,572.812073 
	C249.256241,577.075439 246.352829,580.582336 240.765213,579.990417 
	C235.499344,579.432495 232.364578,576.301697 230.865417,571.462952 
	C228.143463,562.677490 228.000198,553.837708 230.848953,545.041992 
	C232.426682,540.170654 235.617569,537.187439 240.961990,537.010742 
	C246.304276,536.834106 248.993378,540.222351 250.968216,544.536377 
	C251.305969,545.274170 251.599838,546.032104 252.035095,547.069275 
	C256.222137,545.979858 260.297913,544.919373 264.387390,543.855347 
	C260.744751,531.515808 252.375519,525.623230 239.619415,525.993591 
	C226.738770,526.367676 219.047668,533.002563 215.699249,547.324219 
M29.888905,548.524414 
	C29.888905,562.270813 29.888905,576.017273 29.888905,589.661011 
	C34.847878,589.661011 39.233891,589.661011 44.002998,589.661011 
	C44.002998,572.248474 44.002998,555.185913 44.002998,537.645264 
	C50.458260,537.645264 56.529644,537.645264 62.610817,537.645264 
	C62.610817,533.901062 62.610817,530.645386 62.610817,527.228271 
	C45.311455,527.228271 28.252811,527.228271 11.242084,527.228271 
	C11.242084,530.854309 11.242084,534.230408 11.242084,538.088623 
	C17.637655,538.088623 23.690771,538.088623 29.888788,538.088623 
	C29.888788,541.571411 29.888788,544.553467 29.888905,548.524414 
M423.890564,534.548706 
	C423.890564,552.941284 423.890564,571.333923 423.890564,589.636108 
	C438.441193,589.636108 452.456512,589.636108 466.355103,589.636108 
	C466.355103,586.002380 466.355103,582.755249 466.355103,578.972046 
	C456.658936,578.972046 447.289429,578.972046 437.596039,578.972046 
	C437.596039,561.365601 437.596039,544.305359 437.596039,527.301758 
	C432.845276,527.301758 428.446014,527.301758 423.890533,527.301758 
	C423.890533,529.596252 423.890533,531.578735 423.890564,534.548706 
M249.614044,249.114365 
	C252.877930,246.091965 256.141785,243.069550 258.345367,241.028992 
	C250.409912,232.964203 243.077072,225.511871 236.227814,218.550995 
	C236.227814,232.288345 236.227814,246.893143 236.227814,261.497955 
	C236.587753,261.736786 236.947693,261.975586 237.307632,262.214417 
	C241.242447,258.013733 245.177261,253.813019 249.614044,249.114365 
z"/>
<path fill="#413670" opacity="1.000000" stroke="none" 
	d="
M31.640785,265.999878 
	C31.640701,185.746521 31.640701,105.993156 31.640701,25.257812 
	C33.271702,26.531603 34.299450,27.177299 35.138580,28.012501 
	C58.038330,50.805023 80.960571,73.575478 103.714844,96.512520 
	C105.347069,98.157860 106.566513,101.043633 106.569672,103.354568 
	C106.704353,201.980881 106.700958,300.607452 106.545174,399.233704 
	C106.541328,401.664642 105.188637,404.608032 103.507927,406.429077 
	C97.524261,412.912415 91.175674,419.064240 84.841721,425.214325 
	C83.631859,426.389069 81.869209,427.718781 80.347374,427.736206 
	C64.389046,427.919037 48.427826,427.849182 31.640867,427.849182 
	C31.640867,373.857239 31.640867,320.178558 31.640785,265.999878 
z"/>
<path fill="#635FCE" opacity="1.000000" stroke="none" 
	d="
M477.965424,62.928146 
	C478.058899,62.614994 478.237854,62.362389 479.030151,62.046333 
	C479.824371,61.476795 480.090698,61.031269 480.357025,60.585743 
	C480.357025,60.585743 480.472015,60.476345 480.830566,60.495499 
	C481.445770,59.998116 481.702423,59.481579 481.959076,58.965046 
	C481.959076,58.965046 481.998779,58.999390 482.325500,58.956520 
	C483.766876,57.610397 484.881500,56.307140 485.996124,55.003883 
	C485.996124,55.003887 485.998779,54.999390 486.224609,54.894760 
	C486.730194,54.589409 486.911591,54.321976 486.994629,53.987827 
	C487.158630,53.714745 487.361572,53.474583 488.109558,53.102470 
	C488.942627,52.497112 489.269562,52.056622 489.596497,51.616131 
	C489.596497,51.616127 489.902374,51.914478 490.104187,51.768364 
	C490.871887,50.751064 491.437744,49.879887 492.003601,49.008705 
	C492.003601,49.008705 492.000000,49.000000 492.322571,48.957104 
	C493.095398,48.276005 493.545624,47.637806 493.995850,46.999611 
	C493.995850,46.999615 494.025665,46.998322 494.347107,46.967796 
	C495.122681,46.305660 495.576813,45.674046 496.030945,45.042435 
	C496.030945,45.042431 495.996460,45.005257 496.357788,44.978458 
	C497.821747,43.645718 498.924377,42.339771 500.026978,41.033821 
	C500.026978,41.033813 499.996979,41.004433 500.233887,40.907654 
	C500.743042,40.614082 500.925964,40.354366 501.019501,40.031731 
	C501.019501,40.031731 501.003174,39.997730 501.329285,39.973270 
	C502.124115,39.337261 502.592834,38.725708 503.061554,38.114151 
	C503.061554,38.114151 503.030334,38.031601 503.373779,38.001076 
	C504.060852,37.535187 504.404419,37.099831 504.747986,36.664467 
	C504.747986,36.664467 504.831757,36.770802 505.054504,36.727493 
	C505.430115,36.355824 505.582977,36.027466 505.735809,35.699104 
	C505.735809,35.699104 505.663696,35.758320 506.040771,35.780926 
	C506.832733,35.095798 507.247620,34.388065 507.662476,33.680332 
	C507.662476,33.680332 507.751556,33.671280 508.014801,33.678528 
	C508.431305,33.357773 508.584564,33.029766 508.737823,32.701763 
	C508.737823,32.701767 508.767517,32.841778 509.087952,32.769344 
	C510.983215,31.899265 512.558044,31.101622 515.002441,29.863567 
	C515.002441,32.288467 515.002441,34.033249 515.002441,35.778030 
	C515.003052,163.691544 515.004211,291.605072 515.002625,419.518585 
	C515.002502,425.974823 514.039185,426.963898 507.450012,426.968994 
	C487.963257,426.984161 468.476501,426.957092 448.751404,426.684814 
	C447.336914,426.288849 446.160736,426.154572 444.623932,426.018494 
	C443.542358,425.995239 442.821411,425.973816 442.034973,425.778534 
	C441.880585,425.364380 441.729553,425.173187 441.516327,425.031158 
	C441.458466,422.667694 441.400604,420.304199 441.762543,417.335754 
	C442.439636,415.474518 442.921722,414.218292 442.922119,412.961945 
	C442.955780,307.956604 442.952026,202.951248 442.950958,97.945900 
	C442.950958,97.945900 442.998779,98.000458 443.285706,97.957550 
	C443.833221,97.471161 444.093781,97.027679 444.354370,96.584206 
	C444.354370,96.584213 444.472473,96.480095 444.836731,96.496307 
	C445.456116,95.985153 445.711212,95.457787 445.966309,94.930420 
	C446.059174,94.616608 446.237946,94.363495 447.031006,94.046906 
	C447.826355,93.476837 448.093384,93.030937 448.360413,92.585045 
	C448.360413,92.585052 448.488922,92.431549 448.823059,92.482208 
	C449.219879,92.239700 449.282593,91.946526 449.345306,91.653343 
	C449.345306,91.653343 449.448608,91.463120 449.880280,91.555328 
	C450.859131,90.750793 451.406311,89.854050 451.953491,88.957306 
	C451.953491,88.957298 452.000000,89.000000 452.305481,88.947670 
	C453.062775,88.240547 453.514587,87.585754 453.966431,86.930969 
	C454.453583,86.363892 454.940735,85.796814 455.994263,85.075439 
	C456.839844,84.473549 457.119080,84.025948 457.398315,83.578354 
	C457.398315,83.578346 457.504608,83.451027 457.908020,83.549355 
	C458.858521,82.750671 459.405640,81.853668 459.952728,80.956650 
	C459.952728,80.956650 460.000000,81.000000 460.305420,80.947495 
	C461.062347,80.239372 461.513885,79.583755 461.965393,78.928139 
	C462.058899,78.614891 462.237976,78.362274 463.030945,78.046570 
	C463.826385,77.476913 464.093475,77.030983 464.360535,76.585037 
	C464.360535,76.585037 464.489044,76.431618 464.823120,76.482254 
	C465.219879,76.239708 465.282593,75.946526 465.345306,75.653343 
	C465.345306,75.653343 465.448608,75.463120 465.880280,75.555328 
	C466.859131,74.750793 467.406311,73.854050 467.953491,72.957298 
	C467.953491,72.957298 468.000000,73.000000 468.305481,72.947678 
	C469.062805,72.240570 469.514618,71.585777 469.966431,70.930969 
	C470.453583,70.363884 470.940735,69.796806 471.994232,69.075439 
	C472.839813,68.473541 473.119049,68.025940 473.398315,67.578346 
	C473.398315,67.578346 473.504608,67.451027 473.908020,67.549347 
	C474.858521,66.750664 475.405609,65.853661 475.952728,64.956650 
	C475.952728,64.956650 476.000000,65.000000 476.305420,64.947495 
	C477.062347,64.239372 477.513885,63.583755 477.965424,62.928146 
z"/>
<path fill="#8480D6" opacity="1.000000" stroke="none" 
	d="
M407.009705,427.608307 
	C385.543884,427.694763 364.077759,427.837555 342.613159,427.714386 
	C341.443970,427.707672 340.152618,425.577148 339.190338,424.239471 
	C338.795471,423.690582 339.122467,422.621796 339.122467,421.789520 
	C339.122498,355.372833 339.154022,288.956055 339.038208,222.539581 
	C339.031830,218.884689 340.113495,216.382294 342.679596,213.864532 
	C363.891205,193.052429 384.980652,172.115845 406.678802,150.994720 
	C407.481171,150.469910 407.711792,150.167313 407.942444,149.864685 
	C407.942413,149.864685 407.949066,149.951584 408.160553,149.851990 
	C408.559723,149.455719 408.747406,149.159012 408.935089,148.862320 
	C408.935089,148.862320 408.948853,148.946915 409.160706,148.849686 
	C409.559509,148.454819 409.746429,148.157181 409.933350,147.859543 
	C409.933350,147.859543 409.926727,147.957932 410.322021,147.973312 
	C411.476990,149.863586 412.898987,151.737640 412.901337,153.613464 
	C413.009705,240.434479 412.981445,327.255646 413.023682,414.076813 
	C413.026367,419.574036 413.626221,425.141632 407.009705,427.608307 
z"/>
<path fill="#A2A0DF" opacity="1.000000" stroke="none" 
	d="
M311.980835,417.011566 
	C311.980164,417.452972 311.979462,417.894409 311.809143,418.759094 
	C311.753937,419.457031 311.868378,419.731720 311.982788,420.006378 
	C312.019684,420.450500 312.056549,420.894592 311.792908,421.850342 
	C311.363403,422.747620 311.234375,423.133301 311.105377,423.518982 
	C311.135284,427.525818 308.352081,427.954437 305.346558,427.955750 
	C286.979828,427.963837 268.613068,427.939758 250.246338,427.927643 
	C246.138977,427.924927 242.031631,427.927216 237.561813,427.927216 
	C237.351212,425.417236 237.024414,423.325226 237.022583,421.232910 
	C236.989136,382.985657 236.960007,344.738220 237.095764,306.491425 
	C237.102448,304.609009 238.160690,302.276245 239.503799,300.920471 
	C261.303101,278.915070 283.194611,257.000397 305.207703,235.209106 
	C306.504730,233.925171 309.009277,233.861023 310.983521,234.050598 
	C311.008087,236.700836 310.912384,238.534531 311.010773,240.357742 
	C311.292572,245.579102 311.653076,250.796219 311.982605,256.015015 
	C311.985474,256.452911 311.988373,256.890808 311.693054,257.955170 
	C311.281067,270.497223 311.154480,282.412750 311.093628,294.328613 
	C311.090759,294.889191 311.672913,295.452820 311.982635,296.015015 
	C311.985504,296.452881 311.988373,296.890778 311.695862,297.949493 
	C311.162292,305.483124 310.737335,312.395569 310.724457,319.308746 
	C310.696899,334.113556 310.962982,348.918732 310.957550,363.723724 
	C310.952240,378.187988 310.674194,392.652405 310.712250,407.116241 
	C310.720917,410.415771 311.536591,413.713196 311.980835,417.011566 
z"/>
<path fill="#675E8A" opacity="1.000000" stroke="none" 
	d="
M165.072296,158.927734 
	C178.427521,172.220093 191.463760,185.333084 204.692780,198.248672 
	C207.641678,201.127701 208.972244,204.002640 208.935226,208.243607 
	C208.718597,233.070923 208.891647,257.901520 208.721512,282.729553 
	C208.706314,284.949097 207.775620,287.737457 206.267944,289.285736 
	C182.794052,313.391541 159.154709,337.336304 135.553589,361.318237 
	C135.128448,361.052307 134.703323,360.786377 134.278198,360.520477 
	C134.278198,283.557617 134.278198,206.594757 134.278198,128.547226 
	C144.719879,138.847137 154.771378,148.762161 165.072296,158.927734 
z"/>
<path fill="#7B72A8" opacity="1.000000" stroke="none" 
	d="
M210.343018,24.205338 
	C254.706650,24.206345 298.612549,24.206345 342.439758,24.206345 
	C319.347778,47.315166 296.494354,70.185287 273.835602,92.860619 
	C251.541550,70.451981 228.706726,47.499760 205.530441,24.204332 
	C206.832611,24.204332 208.358948,24.204332 210.343018,24.205338 
z"/>
<path fill="#746BA0" opacity="1.000000" stroke="none" 
	d="
M207.755920,427.618134 
	C207.755920,427.618134 207.374649,427.742889 207.183640,427.330383 
	C206.794006,426.594543 206.595367,426.271210 206.396729,425.947876 
	C206.316498,426.516327 206.236267,427.084808 206.156036,427.653259 
	C205.614395,427.722931 205.072769,427.792572 204.260590,427.504150 
	C203.872971,426.719025 203.755905,426.292053 203.638824,425.865051 
	C203.424896,426.475128 203.210953,427.085175 202.997009,427.695251 
	C199.629669,427.747467 196.262360,427.799713 192.384247,427.482605 
	C190.250015,427.304626 188.626572,427.496002 187.003128,427.687378 
	C186.553940,427.739166 186.104767,427.790924 185.212708,427.412201 
	C182.181610,427.218567 179.593369,427.455444 177.005127,427.692322 
	C174.958633,427.749512 172.912125,427.806763 170.420105,427.440216 
	C169.790649,426.590759 169.612701,425.796143 169.421921,425.793030 
	C163.907745,425.703705 158.391708,425.661377 152.878494,425.756958 
	C152.573380,425.762238 152.289902,427.016388 151.996368,427.689240 
	C149.949615,427.747620 147.902863,427.806000 145.312332,427.427338 
	C142.769363,426.651611 140.772232,426.091675 138.770050,426.073120 
	C137.850555,426.064545 136.921188,427.118317 135.996307,427.690338 
	C131.278259,427.744629 126.560226,427.798920 121.225815,427.604797 
	C120.099831,427.464233 119.590210,427.572144 119.080589,427.680054 
	C118.305962,427.736023 117.531326,427.791992 116.374352,427.363922 
	C115.966011,425.832520 115.940018,424.785187 115.914017,423.737823 
	C132.418427,407.113342 148.875458,390.441467 165.443939,373.881134 
	C176.466156,362.864349 187.647568,352.006836 199.447144,340.975281 
	C200.760941,339.919525 201.385315,338.966553 202.009705,338.013611 
	C202.492599,337.415131 202.975479,336.816650 204.137711,336.108948 
	C206.084717,336.126129 207.352386,336.252563 208.883774,336.405273 
	C208.651154,337.883240 208.318008,338.988953 208.326889,340.091888 
	C208.528030,365.089325 208.828674,390.086151 208.937271,415.083893 
	C208.955414,419.260162 208.170013,423.439972 207.755920,427.618134 
M200.410553,342.482361 
	C200.410553,342.482361 200.521088,342.416565 200.410553,342.482361 
z"/>
<path fill="#060609" opacity="1.000000" stroke="none" 
	d="
M330.109222,563.000000 
	C330.109222,572.139893 330.109222,580.779785 330.109222,589.715698 
	C325.524231,589.715698 321.125641,589.715698 316.163910,589.715698 
	C316.163910,585.422546 316.163910,581.148193 316.163910,576.873840 
	C316.163910,572.571716 316.163910,568.269592 316.163910,563.687134 
	C310.554474,563.687134 305.331573,563.687134 299.576752,563.687134 
	C299.576752,572.351013 299.576752,580.898682 299.576752,589.725464 
	C294.657990,589.725464 290.261932,589.725464 285.589813,589.725464 
	C285.589813,568.956055 285.589813,548.233337 285.589813,527.249451 
	C290.101379,527.249451 294.500397,527.249451 299.254608,527.249451 
	C299.254608,535.466187 299.254608,543.562256 299.254608,551.821655 
	C304.899811,551.821655 310.194458,551.821655 315.935883,551.821655 
	C315.935883,543.767151 315.935883,535.712463 315.935883,527.327026 
	C320.760437,527.327026 325.149719,527.327026 330.109222,527.327026 
	C330.109222,538.995789 330.109222,550.747864 330.109222,563.000000 
z"/>
<path fill="#050507" opacity="1.000000" stroke="none" 
	d="
M359.710693,586.372009 
	C350.547974,578.763672 349.581818,568.500610 349.390839,558.067200 
	C349.321320,554.269043 349.628601,550.374451 350.424835,546.665771 
	C353.484283,532.415161 361.934479,525.711670 376.007172,525.993347 
	C388.525513,526.243958 396.915131,533.809509 399.297882,547.585205 
	C401.075836,557.863892 400.945648,568.236816 396.721802,577.936096 
	C390.938324,591.216797 373.511047,595.141846 359.710693,586.372009 
M364.514069,547.287292 
	C364.728210,555.512695 364.286804,563.826477 365.380798,571.933167 
	C366.144165,577.589661 370.370483,580.081360 375.195557,579.997864 
	C380.689575,579.902832 383.804840,576.215393 384.284393,571.674988 
	C385.162567,563.359924 385.535004,554.846436 384.743958,546.546631 
	C384.126892,540.072021 379.988556,537.068298 375.077911,536.999634 
	C369.702209,536.924377 366.728790,539.682434 364.514069,547.287292 
z"/>
<path fill="#060508" opacity="1.000000" stroke="none" 
	d="
M148.928070,543.093506 
	C149.349167,534.489929 154.442352,530.278687 161.522644,527.758423 
	C168.836273,525.155090 176.249130,525.346252 183.595032,527.409790 
	C191.035263,529.499817 195.094421,534.787720 196.854492,542.633362 
	C192.452866,543.119690 188.256531,543.583313 183.666260,544.090515 
	C181.628067,537.885925 177.211624,535.327393 170.771057,535.980103 
	C166.886703,536.373840 163.254028,537.385559 162.542435,541.710388 
	C161.787918,546.296082 164.833984,548.709534 168.854462,549.961731 
	C174.391006,551.685974 180.047546,553.069702 185.482773,555.062622 
	C191.425308,557.241577 196.467255,560.709412 198.088318,567.407532 
	C200.083084,575.649780 197.040619,583.410339 189.442581,587.246765 
	C178.183014,592.931763 166.605942,592.603149 155.442749,586.817627 
	C150.234985,584.118652 147.771347,579.890381 145.966049,572.812622 
	C150.193985,572.191284 154.372269,571.577271 158.473007,570.974609 
	C163.891174,579.802795 169.410095,582.431030 178.839157,579.766296 
	C181.224731,579.092102 184.218521,576.314697 184.622025,574.085449 
	C185.021332,571.879333 183.118576,568.275330 181.113037,566.850525 
	C178.271835,564.832092 174.415131,564.235962 170.983795,563.057068 
	C166.929611,561.664062 162.721970,560.614868 158.839478,558.848267 
	C152.402344,555.919250 148.818237,550.830811 148.928070,543.093506 
z"/>
<path fill="#050506" opacity="1.000000" stroke="none" 
	d="
M83.960114,565.896973 
	C87.861351,553.838928 91.784576,542.201599 95.507332,530.500488 
	C96.333412,527.904053 97.379524,526.691650 100.329994,526.914124 
	C104.447525,527.224548 108.605972,526.992371 112.933868,526.992371 
	C119.802925,547.898560 126.606888,568.606689 133.545349,589.724121 
	C128.664398,589.724121 124.297775,589.724121 119.741371,589.724121 
	C118.604309,585.692871 117.274506,581.768738 116.439690,577.742004 
	C115.879166,575.038269 114.570244,574.294739 112.002449,574.358582 
	C106.344719,574.499329 100.681084,574.402283 94.382835,574.402283 
	C92.871208,579.439941 91.321861,584.603271 89.738281,589.880737 
	C85.253548,589.880737 80.783165,589.880737 75.928253,589.880737 
	C78.636162,581.878723 81.273003,574.086792 83.960114,565.896973 
M102.452652,544.897156 
	C100.699486,551.162659 98.946320,557.428101 97.160362,563.810791 
	C102.465538,563.810791 107.236931,563.810791 112.454453,563.810791 
	C109.962021,554.897888 107.557304,546.298706 105.152580,537.699463 
	C104.879097,537.761719 104.605614,537.823914 104.332130,537.886169 
	C103.813713,539.974548 103.295296,542.062866 102.452652,544.897156 
z"/>
<path fill="#050506" opacity="1.000000" stroke="none" 
	d="
M524.302124,584.785889 
	C521.828369,574.404114 521.828369,574.404114 511.931671,574.403564 
	C500.188171,574.402954 500.188568,574.403076 497.013397,585.569275 
	C496.610199,586.987183 496.199707,588.402954 495.783386,589.851685 
	C491.198395,589.851685 486.749908,589.851685 481.977814,589.851685 
	C488.703918,569.519836 495.312439,549.413757 502.105530,529.370300 
	C502.465759,528.307312 504.347626,527.179993 505.586792,527.099976 
	C509.893188,526.821960 514.228577,526.992554 518.933777,526.992554 
	C525.787903,547.858643 532.629822,568.687622 539.578308,589.840881 
	C534.702942,589.840881 530.413818,589.840881 525.866882,589.840881 
	C525.394775,588.292114 524.919556,586.733154 524.302124,584.785889 
M515.009705,551.455627 
	C513.696899,546.731445 512.384094,542.007202 510.817474,536.369751 
	C508.088287,546.164612 505.647614,554.924011 503.155609,563.867615 
	C508.375549,563.867615 513.168518,563.867615 518.462280,563.867615 
	C517.302368,559.825623 516.217773,556.046021 515.009705,551.455627 
z"/>
<path fill="#050506" opacity="1.000000" stroke="none" 
	d="
M215.785645,546.902100 
	C219.047668,533.002563 226.738770,526.367676 239.619415,525.993591 
	C252.375519,525.623230 260.744751,531.515808 264.387390,543.855347 
	C260.297913,544.919373 256.222137,545.979858 252.035095,547.069275 
	C251.599838,546.032104 251.305969,545.274170 250.968216,544.536377 
	C248.993378,540.222351 246.304276,536.834106 240.961990,537.010742 
	C235.617569,537.187439 232.426682,540.170654 230.848953,545.041992 
	C228.000198,553.837708 228.143463,562.677490 230.865417,571.462952 
	C232.364578,576.301697 235.499344,579.432495 240.765213,579.990417 
	C246.352829,580.582336 249.256241,577.075439 251.613663,572.812073 
	C252.240814,571.677795 252.647324,570.421509 253.252975,568.990051 
	C257.386932,569.779968 261.416138,570.549927 265.445770,571.319946 
	C263.419037,582.315125 254.780807,590.240112 244.122589,590.994324 
	C230.695480,591.944397 220.745880,585.745056 216.966644,573.945251 
	C214.166550,565.202515 214.378723,556.281250 215.785645,546.902100 
z"/>
<path fill="#060508" opacity="1.000000" stroke="none" 
	d="
M29.888847,548.029968 
	C29.888788,544.553467 29.888788,541.571411 29.888788,538.088623 
	C23.690771,538.088623 17.637655,538.088623 11.242084,538.088623 
	C11.242084,534.230408 11.242084,530.854309 11.242084,527.228271 
	C28.252811,527.228271 45.311455,527.228271 62.610817,527.228271 
	C62.610817,530.645386 62.610817,533.901062 62.610817,537.645264 
	C56.529644,537.645264 50.458260,537.645264 44.002998,537.645264 
	C44.002998,555.185913 44.002998,572.248474 44.002998,589.661011 
	C39.233891,589.661011 34.847878,589.661011 29.888905,589.661011 
	C29.888905,576.017273 29.888905,562.270813 29.888847,548.029968 
z"/>
<path fill="#060609" opacity="1.000000" stroke="none" 
	d="
M423.890564,534.054993 
	C423.890533,531.578735 423.890533,529.596252 423.890533,527.301758 
	C428.446014,527.301758 432.845276,527.301758 437.596039,527.301758 
	C437.596039,544.305359 437.596039,561.365601 437.596039,578.972046 
	C447.289429,578.972046 456.658936,578.972046 466.355103,578.972046 
	C466.355103,582.755249 466.355103,586.002380 466.355103,589.636108 
	C452.456512,589.636108 438.441193,589.636108 423.890564,589.636108 
	C423.890564,571.333923 423.890564,552.941284 423.890564,534.054993 
z"/>
<path fill="#817ECE" opacity="1.000000" stroke="none" 
	d="
M442.599274,98.131805 
	C442.952026,202.951248 442.955780,307.956604 442.922119,412.961945 
	C442.921722,414.218292 442.439636,415.474518 441.848450,416.901581 
	C441.388153,415.256134 441.151306,413.439850 441.151093,411.623596 
	C441.138794,309.078247 441.140411,206.532913 441.197357,103.987587 
	C441.198425,102.097435 441.882294,100.207664 442.599274,98.131805 
z"/>
<path fill="#8B85A3" opacity="1.000000" stroke="none" 
	d="
M249.363068,249.363342 
	C245.177261,253.813019 241.242447,258.013733 237.307632,262.214417 
	C236.947693,261.975586 236.587753,261.736786 236.227814,261.497955 
	C236.227814,246.893143 236.227814,232.288345 236.227814,218.550995 
	C243.077072,225.511871 250.409912,232.964203 258.345367,241.028992 
	C256.141785,243.069550 252.877930,246.091965 249.363068,249.363342 
z"/>
<path fill="#736FBB" opacity="1.000000" stroke="none" 
	d="
M442.100494,425.952393 
	C442.821411,425.973816 443.542358,425.995239 444.861633,426.284241 
	C446.636597,426.683380 447.813171,426.814941 448.989746,426.946533 
	C468.476501,426.957092 487.963257,426.984161 507.450012,426.968994 
	C514.039185,426.963898 515.002502,425.974823 515.002625,419.518585 
	C515.004211,291.605072 515.003052,163.691544 515.002441,35.778030 
	C515.002441,34.033249 515.002441,32.288467 515.002441,29.863567 
	C512.558044,31.101622 510.983215,31.899265 509.034302,32.721954 
	C510.800262,30.322424 512.940308,27.897848 515.080261,25.473272 
	C515.457886,25.565552 515.835510,25.657829 516.213135,25.750109 
	C516.213135,27.792215 516.212524,29.834322 516.213135,31.876429 
	C516.251831,161.818985 516.249451,291.761597 516.473694,421.703857 
	C516.483093,427.144318 514.916504,428.125031 509.923584,428.061615 
	C487.601593,427.778107 465.274384,427.905396 442.495300,427.496704 
	C442.061218,426.723541 442.080872,426.337952 442.100494,425.952393 
z"/>
<path fill="#8583BE" opacity="1.000000" stroke="none" 
	d="
M407.446381,427.703583 
	C413.626221,425.141632 413.026367,419.574036 413.023682,414.076813 
	C412.981445,327.255646 413.009705,240.434479 412.901337,153.613464 
	C412.898987,151.737640 411.476990,149.863586 410.290283,147.935562 
	C410.942444,146.652771 412.021606,145.423096 413.758667,143.443802 
	C413.758667,238.654282 413.758667,332.908783 413.758667,427.798859 
	C411.745941,427.798859 409.814514,427.798859 407.446381,427.703583 
z"/>
<path fill="#A6A4CB" opacity="1.000000" stroke="none" 
	d="
M312.018616,416.542389 
	C311.536591,413.713196 310.720917,410.415771 310.712250,407.116241 
	C310.674194,392.652405 310.952240,378.187988 310.957550,363.723724 
	C310.962982,348.918732 310.696899,334.113556 310.724457,319.308746 
	C310.737335,312.395569 311.162292,305.483124 311.691650,298.277893 
	C312.007324,337.348022 312.031860,376.710632 312.018616,416.542389 
z"/>
<path fill="#716C8E" opacity="1.000000" stroke="none" 
	d="
M208.122070,427.712463 
	C208.170013,423.439972 208.955414,419.260162 208.937271,415.083893 
	C208.828674,390.086151 208.528030,365.089325 208.326889,340.091888 
	C208.318008,338.988953 208.651154,337.883240 208.883774,336.405273 
	C207.352386,336.252563 206.084717,336.126129 204.411621,336.003906 
	C205.674255,334.187927 207.342316,332.367828 209.582016,329.923981 
	C209.765854,331.854218 209.977158,333.044373 209.978256,334.234711 
	C210.005753,364.095581 210.030884,393.956543 209.955460,423.817200 
	C209.952103,425.148315 208.998962,426.476990 208.122070,427.712463 
z"/>
<path fill="#A6A4CB" opacity="1.000000" stroke="none" 
	d="
M312.023041,295.545685 
	C311.672913,295.452820 311.090759,294.889191 311.093628,294.328613 
	C311.154480,282.412750 311.281067,270.497223 311.688843,258.283569 
	C312.009674,270.349091 312.036560,282.712738 312.023041,295.545685 
z"/>
<path fill="#716C8E" opacity="1.000000" stroke="none" 
	d="
M152.459259,427.766968 
	C152.289902,427.016388 152.573380,425.762238 152.878494,425.756958 
	C158.391708,425.661377 163.907745,425.703705 169.421921,425.793030 
	C169.612701,425.796143 169.790649,426.590759 169.989044,427.352783 
	C164.309738,427.740997 158.615952,427.792847 152.459259,427.766968 
z"/>
<path fill="#A6A4CB" opacity="1.000000" stroke="none" 
	d="
M312.023010,255.545837 
	C311.653076,250.796219 311.292572,245.579102 311.010773,240.357742 
	C310.912384,238.534531 311.008087,236.700836 311.025024,234.396393 
	C311.390839,239.020401 311.786896,244.117645 312.082275,249.220718 
	C312.194855,251.165817 312.076538,253.124283 312.023010,255.545837 
z"/>
<path fill="#716C8E" opacity="1.000000" stroke="none" 
	d="
M136.441284,427.768188 
	C136.921188,427.118317 137.850555,426.064545 138.770050,426.073120 
	C140.772232,426.091675 142.769363,426.651611 144.881027,427.340363 
	C142.291077,427.742279 139.588669,427.794128 136.441284,427.768188 
z"/>
<path fill="#716C8E" opacity="1.000000" stroke="none" 
	d="
M177.443817,427.768188 
	C179.593369,427.455444 182.181610,427.218567 184.881165,427.330627 
	C182.622498,427.734375 180.252518,427.789215 177.443817,427.768188 
z"/>
<path fill="#716C8E" opacity="1.000000" stroke="none" 
	d="
M115.614380,423.896637 
	C115.940018,424.785187 115.966011,425.832520 115.994888,427.271484 
	C114.887100,427.737823 113.776428,427.812592 111.588799,427.959869 
	C113.242790,426.226654 114.278770,425.141052 115.614380,423.896637 
z"/>
<path fill="#716C8E" opacity="1.000000" stroke="none" 
	d="
M187.414124,427.768311 
	C188.626572,427.496002 190.250015,427.304626 191.933914,427.390564 
	C190.604614,427.728333 189.214874,427.788818 187.414124,427.768311 
z"/>
<path fill="#736FBB" opacity="1.000000" stroke="none" 
	d="
M499.750366,41.192444 
	C498.924377,42.339771 497.821747,43.645718 496.379486,44.990471 
	C497.184448,43.803211 498.329071,42.577137 499.750366,41.192444 
z"/>
<path fill="#817ECE" opacity="1.000000" stroke="none" 
	d="
M485.713867,55.151062 
	C484.881500,56.307140 483.766876,57.610397 482.308411,58.936646 
	C483.120239,57.739170 484.275909,56.518707 485.713867,55.151062 
z"/>
<path fill="#817ECE" opacity="1.000000" stroke="none" 
	d="
M451.679749,89.059311 
	C451.406311,89.854050 450.859131,90.750793 449.965088,91.488121 
	C450.214172,90.606239 450.810059,89.883774 451.679749,89.059311 
z"/>
<path fill="#817ECE" opacity="1.000000" stroke="none" 
	d="
M459.678955,81.058815 
	C459.405640,81.853668 458.858521,82.750671 457.964355,83.488510 
	C458.213287,82.606552 458.809265,81.883766 459.678955,81.058815 
z"/>
<path fill="#716C8E" opacity="1.000000" stroke="none" 
	d="
M201.708557,338.149445 
	C201.385315,338.966553 200.760941,339.919525 199.734619,340.855103 
	C200.024261,339.986908 200.715836,339.136108 201.708557,338.149445 
z"/>
<path fill="#817ECE" opacity="1.000000" stroke="none" 
	d="
M467.679749,73.059303 
	C467.406311,73.854050 466.859131,74.750793 465.965088,75.488113 
	C466.214172,74.606239 466.810059,73.883774 467.679749,73.059303 
z"/>
<path fill="#817ECE" opacity="1.000000" stroke="none" 
	d="
M475.678955,65.058807 
	C475.405609,65.853661 474.858521,66.750664 473.964355,67.488510 
	C474.213287,66.606552 474.809265,65.883759 475.678955,65.058807 
z"/>
<path fill="#736FBB" opacity="1.000000" stroke="none" 
	d="
M507.382812,33.773140 
	C507.247620,34.388065 506.832733,35.095798 506.049133,35.735031 
	C506.154633,35.066334 506.628876,34.466141 507.382812,33.773140 
z"/>
<path fill="#817ECE" opacity="1.000000" stroke="none" 
	d="
M491.731293,49.147804 
	C491.437744,49.879887 490.871887,50.751064 489.965027,51.606274 
	C490.235687,50.822502 490.847351,50.054703 491.731293,49.147804 
z"/>
<path fill="#736FBB" opacity="1.000000" stroke="none" 
	d="
M502.790344,38.207458 
	C502.592834,38.725708 502.124115,39.337261 501.343201,39.986973 
	C501.527039,39.450344 502.023102,38.875553 502.790344,38.207458 
z"/>
<path fill="#716C8E" opacity="1.000000" stroke="none" 
	d="
M203.248459,427.752197 
	C203.210953,427.085175 203.424896,426.475128 203.638824,425.865051 
	C203.755905,426.292053 203.872971,426.719025 203.996445,427.420715 
	C203.835220,427.733307 203.667572,427.771210 203.248459,427.752197 
z"/>
<path fill="#817ECE" opacity="1.000000" stroke="none" 
	d="
M442.034973,425.778534 
	C442.080872,426.337952 442.061218,426.723541 442.038879,427.397797 
	C441.772339,426.997192 441.508545,426.307861 441.380554,425.324860 
	C441.729553,425.173187 441.880585,425.364380 442.034973,425.778534 
z"/>
<path fill="#736FBB" opacity="1.000000" stroke="none" 
	d="
M495.769257,45.175568 
	C495.576813,45.674046 495.122681,46.305660 494.352295,46.981773 
	C494.526581,46.453751 495.017090,45.881226 495.769257,45.175568 
z"/>
<path fill="#817ECE" opacity="1.000000" stroke="none" 
	d="
M493.733551,47.131622 
	C493.545624,47.637806 493.095398,48.276005 492.326508,48.958405 
	C492.495636,48.422951 492.983459,47.843296 493.733551,47.131622 
z"/>
<path fill="#817ECE" opacity="1.000000" stroke="none" 
	d="
M477.690552,63.037663 
	C477.513885,63.583755 477.062347,64.239372 476.283295,64.924599 
	C476.442413,64.351875 476.929047,63.749527 477.690552,63.037663 
z"/>
<path fill="#817ECE" opacity="1.000000" stroke="none" 
	d="
M469.691681,71.040314 
	C469.514618,71.585777 469.062805,72.240570 468.283752,72.925133 
	C468.443329,72.353149 468.930115,71.751404 469.691681,71.040314 
z"/>
<path fill="#817ECE" opacity="1.000000" stroke="none" 
	d="
M461.690552,79.037674 
	C461.513885,79.583755 461.062347,80.239372 460.283325,80.924614 
	C460.442413,80.351898 460.929077,79.749557 461.690552,79.037674 
z"/>
<path fill="#817ECE" opacity="1.000000" stroke="none" 
	d="
M453.691650,87.040306 
	C453.514587,87.585754 453.062775,88.240547 452.283722,88.925125 
	C452.443329,88.353149 452.930115,87.751396 453.691650,87.040306 
z"/>
<path fill="#736FBB" opacity="1.000000" stroke="none" 
	d="
M504.469421,36.730556 
	C504.404419,37.099831 504.060852,37.535187 503.415039,38.016716 
	C503.472198,37.640804 503.831512,37.218723 504.469421,36.730556 
z"/>
<path fill="#817ECE" opacity="1.000000" stroke="none" 
	d="
M489.323914,51.691296 
	C489.269562,52.056622 488.942627,52.497112 488.305359,52.969620 
	C488.347137,52.589912 488.699219,52.178185 489.323914,51.691296 
z"/>
<path fill="#817ECE" opacity="1.000000" stroke="none" 
	d="
M481.716248,59.055977 
	C481.702423,59.481579 481.445770,59.998116 480.884613,60.437386 
	C480.877899,59.955723 481.175659,59.551319 481.716248,59.055977 
z"/>
<path fill="#817ECE" opacity="1.000000" stroke="none" 
	d="
M480.121033,60.685745 
	C480.090698,61.031269 479.824371,61.476795 479.241638,61.942802 
	C479.245178,61.570766 479.565125,61.178257 480.121033,60.685745 
z"/>
<path fill="#817ECE" opacity="1.000000" stroke="none" 
	d="
M473.155334,67.674850 
	C473.119049,68.025940 472.839813,68.473541 472.243652,68.942215 
	C472.255280,68.565971 472.583801,68.168663 473.155334,67.674850 
z"/>
<path fill="#716C8E" opacity="1.000000" stroke="none" 
	d="
M119.383057,427.757141 
	C119.590210,427.572144 120.099831,427.464233 120.762131,427.515991 
	C120.505051,427.728485 120.095284,427.781342 119.383057,427.757141 
z"/>
<path fill="#817ECE" opacity="1.000000" stroke="none" 
	d="
M464.123901,76.684425 
	C464.093475,77.030983 463.826385,77.476913 463.242615,77.943253 
	C463.246399,77.570374 463.566833,77.177086 464.123901,76.684425 
z"/>
<path fill="#817ECE" opacity="1.000000" stroke="none" 
	d="
M457.155334,83.674866 
	C457.119080,84.025948 456.839844,84.473549 456.243683,84.942230 
	C456.255310,84.566002 456.583832,84.168686 457.155334,83.674866 
z"/>
<path fill="#716C8E" opacity="1.000000" stroke="none" 
	d="
M206.372131,427.681702 
	C206.236267,427.084808 206.316498,426.516327 206.396729,425.947876 
	C206.595367,426.271210 206.794006,426.594543 206.999237,427.251465 
	C207.005859,427.585022 206.588257,427.710114 206.372131,427.681702 
z"/>
<path fill="#817ECE" opacity="1.000000" stroke="none" 
	d="
M448.123779,92.684448 
	C448.093384,93.030937 447.826355,93.476837 447.242737,93.943222 
	C447.246490,93.570427 447.566833,93.177147 448.123779,92.684448 
z"/>
<path fill="#817ECE" opacity="1.000000" stroke="none" 
	d="
M445.720093,95.025085 
	C445.711212,95.457787 445.456116,95.985153 444.892059,96.440308 
	C444.880005,95.951981 445.176941,95.535866 445.720093,95.025085 
z"/>
<path fill="#817ECE" opacity="1.000000" stroke="none" 
	d="
M444.119629,96.681976 
	C444.093781,97.027679 443.833221,97.471161 443.258759,97.933029 
	C443.258209,97.560860 443.571564,97.170311 444.119629,96.681976 
z"/>
<path fill="#817ECE" opacity="1.000000" stroke="none" 
	d="
M449.187012,91.714363 
	C449.282593,91.946526 449.219879,92.239700 448.907104,92.427856 
	C448.703217,92.087555 448.827087,91.905075 449.187012,91.714363 
z"/>
<path fill="#817ECE" opacity="1.000000" stroke="none" 
	d="
M465.186981,75.714386 
	C465.282593,75.946526 465.219879,76.239708 464.907104,76.427879 
	C464.703125,76.087563 464.827026,75.905083 465.186981,75.714386 
z"/>
<path fill="#A6A4CB" opacity="1.000000" stroke="none" 
	d="
M311.355530,423.337250 
	C311.234375,423.133301 311.363403,422.747620 311.741028,422.180573 
	C311.861664,422.384644 311.733673,422.770081 311.355530,423.337250 
z"/>
<path fill="#A6A4CB" opacity="1.000000" stroke="none" 
	d="
M312.040222,419.753296 
	C311.868378,419.731720 311.753937,419.457031 311.802979,419.090149 
	C312.010223,419.165375 312.053955,419.332794 312.040222,419.753296 
z"/>
<path fill="#736FBB" opacity="1.000000" stroke="none" 
	d="
M505.482147,35.778591 
	C505.582977,36.027466 505.430115,36.355824 504.988190,36.714027 
	C504.875549,36.448612 505.052002,36.153347 505.482147,35.778591 
z"/>
<path fill="#817ECE" opacity="1.000000" stroke="none" 
	d="
M486.739227,54.048607 
	C486.911591,54.321976 486.730194,54.589409 486.226196,54.892330 
	C486.162598,54.699486 486.323212,54.404434 486.739227,54.048607 
z"/>
<path fill="#8583BE" opacity="1.000000" stroke="none" 
	d="
M409.668182,147.936890 
	C409.746429,148.157181 409.559509,148.454819 409.118103,148.845154 
	C409.043396,148.629990 409.223206,148.322113 409.668182,147.936890 
z"/>
<path fill="#8583BE" opacity="1.000000" stroke="none" 
	d="
M408.670410,148.938538 
	C408.747406,149.159012 408.559723,149.455719 408.117615,149.844421 
	C408.044067,149.629211 408.224915,149.321991 408.670410,148.938538 
z"/>
<path fill="#8583BE" opacity="1.000000" stroke="none" 
	d="
M407.664246,149.941269 
	C407.711792,150.167313 407.481171,150.469910 406.963623,150.841766 
	C406.913147,150.613281 407.149597,150.315552 407.664246,149.941269 
z"/>
<path fill="#736FBB" opacity="1.000000" stroke="none" 
	d="
M500.766357,40.088943 
	C500.925964,40.354366 500.743042,40.614082 500.252747,40.915451 
	C500.194214,40.728741 500.353729,40.437450 500.766357,40.088943 
z"/>
<path fill="#736FBB" opacity="1.000000" stroke="none" 
	d="
M508.483398,32.779842 
	C508.584564,33.029766 508.431305,33.357773 507.988953,33.715096 
	C507.876251,33.448917 508.052643,33.153423 508.483398,32.779842 
z"/>
<path fill="#6760C2" opacity="1.000000" stroke="none" 
	d="
M448.751404,426.684814 
	C447.813171,426.814941 446.636597,426.683380 445.222290,426.286072 
	C446.160736,426.154572 447.336914,426.288849 448.751404,426.684814 
z"/>
<path fill="#716C8E" opacity="1.000000" stroke="none" 
	d="
M200.465820,342.449463 
	C200.521088,342.416565 200.410553,342.482361 200.465820,342.449463 
z"/>
<path fill="#FAFAFB" opacity="1.000000" stroke="none" 
	d="
M364.663879,546.903748 
	C366.728790,539.682434 369.702209,536.924377 375.077911,536.999634 
	C379.988556,537.068298 384.126892,540.072021 384.743958,546.546631 
	C385.535004,554.846436 385.162567,563.359924 384.284393,571.674988 
	C383.804840,576.215393 380.689575,579.902832 375.195557,579.997864 
	C370.370483,580.081360 366.144165,577.589661 365.380798,571.933167 
	C364.286804,563.826477 364.728210,555.512695 364.663879,546.903748 
z"/>
<path fill="#F5F5F5" opacity="1.000000" stroke="none" 
	d="
M102.614761,544.524170 
	C103.295296,542.062866 103.813713,539.974548 104.332130,537.886169 
	C104.605614,537.823914 104.879097,537.761719 105.152580,537.699463 
	C107.557304,546.298706 109.962021,554.897888 112.454453,563.810791 
	C107.236931,563.810791 102.465538,563.810791 97.160362,563.810791 
	C98.946320,557.428101 100.699486,551.162659 102.614761,544.524170 
z"/>
<path fill="#F5F5F6" opacity="1.000000" stroke="none" 
	d="
M515.071411,551.861023 
	C516.217773,556.046021 517.302368,559.825623 518.462280,563.867615 
	C513.168518,563.867615 508.375549,563.867615 503.155609,563.867615 
	C505.647614,554.924011 508.088287,546.164612 510.817474,536.369751 
	C512.384094,542.007202 513.696899,546.731445 515.071411,551.861023 
z"/>
</svg>